
<svg xmlns="http://www.w3.org/2000/svg" height="18" id="S_Help_18_N" viewBox="0 0 18 18" width="18">
  <defs>
    <style>
      .fill {
        fill: #6e6e6e;
      }

      
    </style>
  </defs>
  <path class="fill" d="M9,1a8,8,0,1,0,8,8A8,8,0,0,0,9,1Zm.023,13.438a1.345,1.345,0,1,1,0-2.688,1.31,1.31,0,0,1,1.4,1.335A1.291,1.291,0,0,1,9.023,14.438Zm1.784-6.409-.1.105c-.395.414-.842.884-.842,1.175a1.377,1.377,0,0,0,.179.674l.073.139-.057.215a.309.309,0,0,1-.284.188H8.436a.437.437,0,0,1-.326-.117,2.06,2.06,0,0,1-.422-1.262A3.059,3.059,0,0,1,8.8,7.071c.1-.11.2-.21.288-.3.314-.325.507-.535.507-.758,0-.153,0-.622-.893-.622a2.955,2.955,0,0,0-1.58.46.3.3,0,0,1-.327-.01l-.118-.085L6.649,5.53V4.081a.441.441,0,0,1,.2-.41A4.143,4.143,0,0,1,9,3.119a2.552,2.552,0,0,1,2.751,2.636A3.068,3.068,0,0,1,10.807,8.029Z" />
  </svg>