<svg xmlns="http://www.w3.org/2000/svg" data-name="S_Feedback_24_N@1x" height="24" id="S_Feedback_24_N_1x" viewBox="0 0 24 24" width="24">
  <defs>
    <style>
      .cls-1 {
        fill: #707070;
      }
    </style>
  </defs>
  <title>S_Feedback_24_N@1x</title>
  <rect id="ToDelete" fill="#ff13dc" opacity="0" width="24" height="24" /><path class="cls-1" d="M19,3H5A3,3,0,0,0,2,6v8a3,3,0,0,0,3,3H6v4.8a.5.5,0,0,0,.854.353L12,17h7a3,3,0,0,0,3-3V6A3,3,0,0,0,19,3ZM6,12.225A2.225,2.225,0,1,1,8.225,10,2.225,2.225,0,0,1,6,12.225Zm6,0A2.225,2.225,0,1,1,14.225,10,2.225,2.225,0,0,1,12,12.225Zm6,0A2.225,2.225,0,1,1,20.225,10,2.225,2.225,0,0,1,18,12.225Z" />
  </svg>